<?xml version="1.0" encoding="UTF-8" standalone="no"?>
<!DOCTYPE svg PUBLIC "-//W3C//DTD SVG 1.1//EN"
 "http://www.w3.org/Graphics/SVG/1.1/DTD/svg11.dtd">
<!-- Generated by graphviz version 2.50.0 (20220708.1628)
 -->
<!-- Title: snakemake_dag Pages: 1 -->
<svg width="76pt" height="260pt"
 viewBox="0.00 0.00 76.00 260.00" xmlns="http://www.w3.org/2000/svg" xmlns:xlink="http://www.w3.org/1999/xlink">
<g id="graph0" class="graph" transform="scale(1 1) rotate(0) translate(4 256)">
<title>snakemake_dag</title>
<polygon fill="white" stroke="transparent" points="-4,4 -4,-256 72,-256 72,4 -4,4"/>
<!-- 0 -->
<g id="node1" class="node">
<title>0</title>
<path fill="none" stroke="#59d856" stroke-width="2" d="M49,-36C49,-36 19,-36 19,-36 13,-36 7,-30 7,-24 7,-24 7,-12 7,-12 7,-6 13,0 19,0 19,0 49,0 49,0 55,0 61,-6 61,-12 61,-12 61,-24 61,-24 61,-30 55,-36 49,-36"/>
<text text-anchor="middle" x="34" y="-15.5" font-family="sans" font-size="10.00">all</text>
</g>
<!-- 1 -->
<g id="node2" class="node">
<title>1</title>
<path fill="none" stroke="#d85656" stroke-width="2" d="M56,-108C56,-108 12,-108 12,-108 6,-108 0,-102 0,-96 0,-96 0,-84 0,-84 0,-78 6,-72 12,-72 12,-72 56,-72 56,-72 62,-72 68,-78 68,-84 68,-84 68,-96 68,-96 68,-102 62,-108 56,-108"/>
<text text-anchor="middle" x="34" y="-87.5" font-family="sans" font-size="10.00">step_three</text>
</g>
<!-- 1&#45;&gt;0 -->
<g id="edge1" class="edge">
<title>1&#45;&gt;0</title>
<path fill="none" stroke="grey" stroke-width="2" d="M34,-71.7C34,-63.98 34,-54.71 34,-46.11"/>
<polygon fill="grey" stroke="grey" stroke-width="2" points="37.5,-46.1 34,-36.1 30.5,-46.1 37.5,-46.1"/>
</g>
<!-- 2 -->
<g id="node3" class="node">
<title>2</title>
<path fill="none" stroke="#56d8d8" stroke-width="2" d="M52.5,-180C52.5,-180 15.5,-180 15.5,-180 9.5,-180 3.5,-174 3.5,-168 3.5,-168 3.5,-156 3.5,-156 3.5,-150 9.5,-144 15.5,-144 15.5,-144 52.5,-144 52.5,-144 58.5,-144 64.5,-150 64.5,-156 64.5,-156 64.5,-168 64.5,-168 64.5,-174 58.5,-180 52.5,-180"/>
<text text-anchor="middle" x="34" y="-159.5" font-family="sans" font-size="10.00">step_two</text>
</g>
<!-- 2&#45;&gt;1 -->
<g id="edge2" class="edge">
<title>2&#45;&gt;1</title>
<path fill="none" stroke="grey" stroke-width="2" d="M34,-143.7C34,-135.98 34,-126.71 34,-118.11"/>
<polygon fill="grey" stroke="grey" stroke-width="2" points="37.5,-118.1 34,-108.1 30.5,-118.1 37.5,-118.1"/>
</g>
<!-- 3 -->
<g id="node4" class="node">
<title>3</title>
<path fill="none" stroke="#d6d856" stroke-width="2" d="M52.5,-252C52.5,-252 15.5,-252 15.5,-252 9.5,-252 3.5,-246 3.5,-240 3.5,-240 3.5,-228 3.5,-228 3.5,-222 9.5,-216 15.5,-216 15.5,-216 52.5,-216 52.5,-216 58.5,-216 64.5,-222 64.5,-228 64.5,-228 64.5,-240 64.5,-240 64.5,-246 58.5,-252 52.5,-252"/>
<text text-anchor="middle" x="34" y="-231.5" font-family="sans" font-size="10.00">step_one</text>
</g>
<!-- 3&#45;&gt;2 -->
<g id="edge3" class="edge">
<title>3&#45;&gt;2</title>
<path fill="none" stroke="grey" stroke-width="2" d="M34,-215.7C34,-207.98 34,-198.71 34,-190.11"/>
<polygon fill="grey" stroke="grey" stroke-width="2" points="37.5,-190.1 34,-180.1 30.5,-190.1 37.5,-190.1"/>
</g>
</g>
</svg>
